<svg xmlns="http://www.w3.org/2000/svg" xmlns:xlink="http://www.w3.org/1999/xlink" width="607.106" height="142.554" viewBox="0 350.243 607.106 142.554"><g fill="#FAFAFA"><path d="M195.055 386.996c0 7.734-2.27 13.977-6.882 18.518-5.25 5.463-12.062 8.23-20.434 8.23-8.017 0-14.829-2.767-20.434-8.372-5.605-5.534-8.443-12.487-8.443-20.647s2.838-15.113 8.443-20.647 12.416-8.372 20.434-8.372c3.973 0 7.805.78 11.423 2.341 3.618 1.561 6.527 3.618 8.656 6.244l-4.896 4.896c-3.689-4.399-8.727-6.598-15.184-6.598-5.818 0-10.926 2.058-15.184 6.173-4.257 4.115-6.386 9.437-6.386 16.035s2.129 11.92 6.386 16.035 9.295 6.173 15.184 6.173c6.244 0 11.352-2.058 15.538-6.244 2.696-2.696 4.257-6.457 4.683-11.281h-20.221v-6.669h26.961c.214 1.489.356 2.837.356 4.185zM202.08 412.538v-55.555h17.028c8.514 0 15.396 2.554 20.505 7.734 5.108 5.179 7.663 11.849 7.663 20.079s-2.554 14.9-7.663 20.079c-5.108 5.179-11.92 7.734-20.505 7.734H202.08v-.071zm7.166-6.811h9.862c6.386 0 11.494-1.845 15.254-5.534s5.605-8.798 5.605-15.467c0-6.598-1.845-11.707-5.605-15.396s-8.869-5.534-15.254-5.534h-9.862v41.931zM307.868 386.996c0 7.734-2.27 13.977-6.882 18.518-5.25 5.463-12.062 8.23-20.434 8.23-8.017 0-14.829-2.767-20.434-8.372-5.605-5.534-8.443-12.487-8.443-20.647s2.838-15.113 8.443-20.647c5.605-5.534 12.416-8.372 20.434-8.372 3.973 0 7.805.78 11.423 2.341 3.619 1.561 6.528 3.618 8.656 6.244l-4.896 4.896c-3.689-4.399-8.727-6.598-15.184-6.598-5.818 0-10.926 2.058-15.184 6.173-4.257 4.115-6.386 9.437-6.386 16.035s2.129 11.92 6.386 16.035 9.295 6.173 15.184 6.173c6.244 0 11.352-2.058 15.538-6.244 2.696-2.696 4.257-6.457 4.683-11.281h-20.221v-6.669h26.961c.214 1.489.356 2.837.356 4.185zM333.623 412.538v-55.555h17.028c8.514 0 15.396 2.554 20.505 7.734 5.108 5.179 7.663 11.849 7.663 20.079s-2.554 14.9-7.663 20.079-11.92 7.734-20.505 7.734h-17.028v-.071zm7.166-6.811h9.862c6.386 0 11.494-1.845 15.255-5.534 3.76-3.689 5.605-8.798 5.605-15.467 0-6.598-1.845-11.707-5.605-15.396s-8.869-5.534-15.255-5.534h-9.862v41.931zM402.162 413.816c-5.747 0-10.43-1.916-13.977-5.747-3.618-3.831-5.392-8.656-5.392-14.545 0-5.534 1.774-10.288 5.25-14.261s7.947-5.96 13.41-5.96c5.605 0 10.146 1.845 13.552 5.534s5.108 8.585 5.108 14.758l-.071 1.348H390.03c.213 3.831 1.49 6.882 3.831 9.082 2.341 2.199 5.108 3.335 8.23 3.335 5.108 0 8.585-2.199 10.43-6.528l6.386 2.625c-1.277 2.98-3.264 5.392-6.102 7.379-2.98 1.986-6.457 2.98-10.643 2.98zm10.288-24.833c-.142-2.199-1.135-4.257-2.98-6.244s-4.541-2.98-8.159-2.98c-2.625 0-4.896.851-6.882 2.483-1.916 1.632-3.264 3.902-3.973 6.669h21.995v.072h-.001zM435.012 412.538l-15.396-38.03h7.805l11.21 29.516h.142l11.352-29.516h7.592l-15.538 38.03h-7.167zM468.998 412.538h-7.166v-55.555h32.425v6.811h-25.33v18.234h22.846v6.669h-22.846v23.84l.071.001zM515.896 413.816c-5.747 0-10.43-1.916-13.977-5.747-3.618-3.831-5.392-8.656-5.392-14.545 0-5.534 1.774-10.288 5.25-14.261s7.947-5.96 13.41-5.96c5.605 0 10.146 1.845 13.552 5.534s5.108 8.585 5.108 14.758l-.071 1.348h-30.012c.213 3.831 1.49 6.882 3.831 9.082s5.108 3.335 8.23 3.335c5.109 0 8.585-2.199 10.43-6.528l6.386 2.625c-1.277 2.98-3.264 5.392-6.102 7.379-3.051 1.986-6.527 2.98-10.643 2.98zm10.217-24.833c-.142-2.199-1.135-4.257-2.98-6.244s-4.541-2.98-8.159-2.98c-2.625 0-4.896.851-6.882 2.483-1.916 1.632-3.264 3.902-3.973 6.669h21.995v.072h-.001zM552.649 413.816c-4.257 0-7.734-1.064-10.501-3.122s-4.825-4.683-6.102-7.734l6.386-2.625c1.987 4.754 5.463 7.166 10.288 7.166 2.2 0 4.044-.497 5.463-1.49 1.419-.993 2.129-2.27 2.129-3.902 0-2.483-1.703-4.186-5.179-5.038l-7.663-1.845a17.747 17.747 0 0 1-6.882-3.548c-2.2-1.703-3.264-4.044-3.264-7.024 0-3.335 1.49-6.102 4.47-8.159 2.98-2.129 6.527-3.122 10.572-3.122 3.335 0 6.386.78 9.011 2.27 2.625 1.561 4.541 3.689 5.676 6.528l-6.244 2.554c-1.419-3.335-4.328-5.038-8.656-5.038-2.129 0-3.902.426-5.321 1.348-1.419.851-2.199 2.058-2.199 3.548 0 2.199 1.703 3.618 5.037 4.399l7.521 1.774c3.548.851 6.244 2.27 7.947 4.257s2.554 4.328 2.554 6.811c0 3.406-1.419 6.244-4.186 8.514-2.839 2.342-6.458 3.478-10.857 3.478zM589.118 413.177c-3.973 0-7.024-1.064-9.153-3.193s-3.122-5.108-3.122-9.011v-19.937h-6.669v-6.527h6.669v-11.636h7.166v11.636h9.295v6.528h-9.295v19.37c0 4.115 1.703 6.244 5.108 6.244 1.277 0 2.412-.213 3.264-.639l2.483 6.102c-1.56.708-3.476 1.063-5.746 1.063z"/></g><g fill="#FAFAFA"><path d="M143.388 485.217v-53.381h8.35l25.945 41.526h.298l-.298-10.288v-31.238h6.859v53.381h-7.157l-27.137-43.539h-.298l.298 10.288v33.251h-6.86zM197.29 453.047c3.528-3.702 8.026-5.555 13.494-5.555 5.467 0 9.965 1.853 13.494 5.555 3.529 3.703 5.293 8.338 5.293 13.904 0 5.567-1.765 10.202-5.293 13.904-3.529 3.703-8.027 5.554-13.494 5.554-5.468 0-9.966-1.851-13.494-5.554-3.53-3.702-5.293-8.337-5.293-13.904 0-5.566 1.763-10.201 5.293-13.904zm5.107 23.484c2.36 2.411 5.156 3.616 8.387 3.616 3.23 0 6.026-1.205 8.387-3.616 2.36-2.41 3.542-5.604 3.542-9.58s-1.181-7.169-3.542-9.58c-2.361-2.41-5.157-3.616-8.387-3.616-3.231 0-6.027 1.206-8.387 3.616-2.361 2.411-3.542 5.604-3.542 9.58 0 3.977 1.181 7.17 3.542 9.58zM241.948 485.217h-6.859v-36.531h6.561v5.964h.298c.695-1.987 2.125-3.627 4.287-4.92 2.162-1.292 4.261-1.938 6.3-1.938 2.038 0 3.752.298 5.144.895l-2.609 6.411c-.895-.347-2.113-.521-3.653-.521-2.486 0-4.686.982-6.598 2.945-1.914 1.964-2.87 4.536-2.87 7.716v19.979h-.001zM275.199 486.409c-4.723 0-8.797-1.863-12.227-5.591s-5.145-8.351-5.145-13.867 1.715-10.14 5.145-13.867c3.429-3.728 7.504-5.592 12.227-5.592 2.783 0 5.281.597 7.493 1.79 2.211 1.192 3.864 2.684 4.958 4.473h.298l-.298-5.069v-16.85h6.859v53.381h-6.561v-5.069h-.298c-1.094 1.789-2.747 3.28-4.958 4.473-2.213 1.193-4.71 1.788-7.493 1.788zm1.118-6.261c3.23 0 5.976-1.193 8.238-3.579 2.261-2.386 3.392-5.592 3.392-9.617 0-4.026-1.131-7.231-3.392-9.617-2.262-2.386-5.008-3.579-8.238-3.579-3.181 0-5.915 1.206-8.201 3.616-2.287 2.411-3.43 5.604-3.43 9.58 0 3.977 1.143 7.17 3.43 9.58 2.286 2.411 5.02 3.616 8.201 3.616zM319.035 486.409c-5.516 0-10.002-1.838-13.457-5.517-3.455-3.678-5.18-8.324-5.18-13.941 0-5.317 1.676-9.89 5.031-13.718 3.355-3.827 7.643-5.741 12.861-5.741 5.416 0 9.754 1.766 13.01 5.294 3.254 3.529 4.883 8.251 4.883 14.165l-.074 1.268h-28.854c.199 3.679 1.43 6.586 3.691 8.723 2.26 2.138 4.908 3.206 7.939 3.206 4.92 0 8.25-2.088 9.99-6.263l6.113 2.535c-1.193 2.833-3.156 5.207-5.889 7.119-2.732 1.913-6.088 2.87-10.064 2.87zm9.841-23.856c-.148-2.088-1.107-4.075-2.871-5.965-1.764-1.888-4.387-2.833-7.865-2.833-2.533 0-4.734.796-6.598 2.386-1.863 1.592-3.145 3.728-3.84 6.412h21.174zM356.386 486.409c-4.076 0-7.444-.994-10.103-2.981s-4.61-4.474-5.853-7.456l6.113-2.534c1.938 4.573 5.243 6.858 9.916 6.858 2.137 0 3.889-.472 5.256-1.416 1.366-.943 2.051-2.187 2.051-3.728 0-2.386-1.666-4.001-4.995-4.847l-7.381-1.789c-2.337-.597-4.548-1.727-6.636-3.392-2.087-1.665-3.131-3.914-3.131-6.747 0-3.23 1.428-5.853 4.286-7.866s6.25-3.02 10.177-3.02c3.23 0 6.113.734 8.648 2.2s4.349 3.566 5.442 6.3l-5.964 2.46c-1.343-3.23-4.126-4.846-8.351-4.846-2.038 0-3.753.423-5.144 1.267-1.393.846-2.088 1.989-2.088 3.43 0 2.088 1.614 3.504 4.846 4.25l7.232 1.715c3.429.795 5.964 2.162 7.604 4.1 1.64 1.938 2.46 4.127 2.46 6.562 0 3.28-1.342 6.014-4.026 8.2-2.68 2.187-6.135 3.28-10.359 3.28zM392.171 485.814c-3.828 0-6.747-1.019-8.76-3.057-2.014-2.038-3.02-4.921-3.02-8.648v-19.16h-6.412v-6.263h6.412v-11.184h6.858v11.184h8.946v6.263h-8.946v18.638c0 3.978 1.641 5.965 4.921 5.965 1.242 0 2.285-.198 3.131-.597l2.386 5.89c-1.49.644-3.329.969-5.516.969zM418.936 486.409c-5.517 0-10.003-1.838-13.457-5.517-3.455-3.678-5.181-8.324-5.181-13.941 0-5.317 1.677-9.89 5.032-13.718 3.354-3.827 7.642-5.741 12.86-5.741 5.417 0 9.754 1.766 13.01 5.294 3.255 3.529 4.883 8.251 4.883 14.165l-.074 1.268h-28.853c.198 3.679 1.429 6.586 3.69 8.723 2.261 2.138 4.908 3.206 7.94 3.206 4.92 0 8.25-2.088 9.99-6.263l6.113 2.535c-1.193 2.833-3.157 5.207-5.89 7.119-2.732 1.913-6.086 2.87-10.063 2.87zm9.842-23.856c-.149-2.088-1.107-4.075-2.871-5.965-1.765-1.888-4.387-2.833-7.865-2.833-2.534 0-4.734.796-6.598 2.386-1.864 1.592-3.145 3.728-3.84 6.412h21.174zM490.059 485.217h-32.505v-6.859c9.74-9.791 15.979-16.178 18.713-19.16 2.435-2.732 4.074-4.809 4.92-6.225.845-1.417 1.268-3.169 1.268-5.257 0-2.136-.846-4.025-2.534-5.666-1.69-1.64-3.952-2.46-6.785-2.46-2.585 0-4.672.759-6.262 2.274-1.592 1.517-2.609 3.144-3.057 4.883l-6.263-2.535c.845-2.684 2.609-5.219 5.293-7.604s6.162-3.578 10.438-3.578c4.722 0 8.599 1.442 11.631 4.324 3.03 2.883 4.548 6.337 4.548 10.362 0 4.971-2.71 10.289-8.127 15.955l-14.91 14.985h23.633v6.561h-.001zM531.957 478.731c-3.778 5.12-8.723 7.679-14.837 7.679-6.113 0-11.06-2.559-14.836-7.679-3.777-5.118-5.666-11.455-5.666-19.011 0-7.604 1.889-13.953 5.666-19.049 3.776-5.094 8.723-7.642 14.836-7.642 6.114 0 11.059 2.548 14.837 7.642 3.776 5.096 5.666 11.444 5.666 19.049 0 7.556-1.889 13.892-5.666 19.011zm-14.836 1.118c4.075 0 7.344-1.912 9.805-5.74 2.46-3.827 3.69-8.623 3.69-14.389 0-5.815-1.23-10.624-3.69-14.427-2.461-3.802-5.729-5.703-9.805-5.703-4.126 0-7.406 1.901-9.841 5.703-2.436 3.803-3.653 8.611-3.653 14.427 0 5.766 1.218 10.562 3.653 14.389 2.434 3.828 5.715 5.74 9.841 5.74zM562.524 485.217h-6.859v-42.496l-9.915 4.324-2.609-5.814 14.985-7.009h4.398v50.995zM591.151 452.637c3.976 0 7.629 1.629 10.96 4.884 3.329 3.256 4.995 7.194 4.995 11.816 0 4.523-1.728 8.499-5.182 11.929-3.455 3.43-7.543 5.144-12.265 5.144-5.069 0-9.257-1.726-12.562-5.181-3.307-3.454-4.958-7.418-4.958-11.892 0-4.722 1.987-9.99 5.964-15.806l13.867-20.502 5.517 3.802-12.152 16.85.149.149c1.243-.795 3.133-1.193 5.667-1.193zm-1.491 27.138c2.882 0 5.355-.994 7.418-2.982 2.062-1.987 3.095-4.447 3.095-7.381 0-2.882-1.032-5.33-3.095-7.344-2.062-2.013-4.536-3.019-7.418-3.019-2.883 0-5.367 1.006-7.455 3.019-2.088 2.014-3.131 4.462-3.131 7.344 0 2.934 1.03 5.394 3.094 7.381 2.061 1.987 4.559 2.982 7.492 2.982z"/></g><defs><path id="a" d="M40.788 421.482l12.861 22.18-28.418 49.135H-.338z"/></defs><clipPath id="b"><use xlink:href="#a" overflow="visible"/></clipPath><g clip-path="url(#b)"><path fill="#0F9D58" d="M57.269 438.425l-33.193 57.222-27.88.462 48.134-82.021z"/><path fill="#07864F" d="M31.392 429.876c-1.463 7.393.231 13.709 3.158 20.563 2.618 6.315 8.01 14.633 6.007 21.718-1.001 3.543 4.544 5.083 5.545 1.54 1.848-6.854-1.078-13.015-3.697-19.177-3.081-7.393-7.085-14.787-5.468-23.104.693-3.619-4.852-5.159-5.545-1.54z"/><path fill="#07864F" d="M7.594 492.258c-3.004 0-6.007-.154-9.011-.385l.462-5.699c4.005.308 8.01.462 12.014.308 5.468-.231 12.399-.924 17.097-4.929 3.158-2.695 5.16-6.854 5.237-11.167 0-1.232-.385-2.542-.77-4.005-.154-.693-.385-1.386-.539-2.079a24.518 24.518 0 0 0-2.696-7.085c-.385-.693-.847-1.463-1.386-2.156-.924-1.463-1.925-2.927-2.618-4.698-1.54-3.543-1.617-7.008-.231-9.781l5.083 2.541c-.616 1.232-.462 3.004.308 4.929.539 1.309 1.386 2.541 2.233 3.851.462.77 1.001 1.54 1.463 2.387a31.473 31.473 0 0 1 3.389 8.703l.462 1.848c.462 1.694 1.001 3.62.924 5.622-.154 5.93-2.85 11.629-7.239 15.403-6.084 5.16-14.248 6.084-20.64 6.315-1.077.077-2.309.077-3.542.077z"/><path fill="#07864F" d="M2.512 483.94l-1.155-5.622c2.079-.385 4.236-.616 6.238-.847 2.156-.231 4.159-.462 6.161-.924 2.85-.616 6.777-2.002 8.703-5.083 1.463-2.31 1.848-5.545 1.078-8.934-.77-3.312-2.464-6.392-4.467-9.704l4.929-2.85c2.079 3.62 4.082 7.239 5.083 11.321 1.155 4.929.539 9.781-1.848 13.401-2.387 3.697-6.7 6.315-12.322 7.547a72.03 72.03 0 0 1-6.777 1.001c-1.85.155-3.775.309-5.623.694zM48.874 462.992l-5.314-2.233c1.694-3.928 2.002-8.472.924-12.63-.539-2.002-1.386-3.928-2.233-6.007-.385-.924-.77-1.771-1.155-2.696-1.155-2.927-2.464-6.777-2.002-10.859.539-5.468 4.236-10.397 9.242-12.476l2.233 5.314c-3.081 1.309-5.468 4.467-5.776 7.778-.308 2.85.693 5.853 1.617 8.087.308.847.693 1.694 1.078 2.541.924 2.156 1.925 4.39 2.541 6.854 1.387 5.391 1.002 11.168-1.155 16.327z"/><path fill="#07864F" d="M55.343 446.742c-2.85-2.927-6.7-6.854-7.547-12.168-.693-4.236.847-8.703 3.928-11.706l4.005 4.159c-1.771 1.694-2.618 4.236-2.233 6.623.539 3.235 3.004 6.007 6.007 9.011l-4.16 4.081z"/><path fill="#004F2B" d="M41.481 442.738c5.699-4.159 4.005-6.931 4.005-6.931s-4.005 1.617-6.084 4.467c.616-5.391-1.386-6.931-3.389-8.087.539 5.237 1.001 6.777 1.078 7.008-.308-.539-2.387-4.698-5.468-5.853.539 3.312 2.079 5.468 3.081 6.623.539.462.924.847.924.924-.077-.077-.462-.308-.924-.924-1.54-1.232-4.852-2.85-9.011.539 3.62 2.079 9.011 1.463 9.704 1.386-.924.231-10.859 3.235-10.089 8.472 4.467-1.617 8.395-5.237 9.242-5.93-.847.847-5.391 5.468-5.545 10.397 3.312-2.773 5.314-4.467 6.469-5.545-.616 2.773-1.232 5.391-1.771 7.855-2.31 10.474-4.775 21.256-6.546 21.333-.693 0-1.386-1.694-2.002-3.235-1.078-2.773-2.387-6.161-5.93-6.084-1.617 0-6.469.077-16.019 33.193l2.002.616c6.7-23.258 11.629-31.653 14.017-31.653 1.925 0 2.85 1.925 3.928 4.775.924 2.31 1.771 4.621 4.005 4.621 3.466-.077 5.083-7.239 8.549-22.95.539-2.31 1.078-4.698 1.617-7.316.308 2.464.616 5.776.154 8.01 3.389-6.238 2.002-11.013 2.002-11.013s4.775 6.931 6.546 7.855c1.078-5.545-4.236-9.319-4.236-9.319s7.393-1.848 6.7 3.235c3.619-2.927 1.308-7.625-7.009-6.469z"/></g><defs><path id="c" d="M65.432 464.148l-11.86-20.486-28.418 49.135h24.413l16.25-28.11z"/></defs><clipPath id="d"><use xlink:href="#c" overflow="visible"/></clipPath><g clip-path="url(#d)"><path fill="#FFC107" d="M69.36 452.596v6.7l-17.944 33.501c-1.001 1.848-2.927 3.004-5.083 3.081l-24.414-.154 36.967-62.305 8.934 14.094c1.001 1.54 1.54 3.311 1.54 5.083z"/><g fill="none" stroke-width="2.102" stroke-linecap="round" stroke-linejoin="round" stroke-miterlimit="10"><g stroke="#E5A300"><path d="M38.477 468.306l13.478 12.785v-12.785"/><path d="M43.098 468.306l8.857 12.785-4.698-12.785M38.554 471.772l13.401 9.319-13.247-5.083M51.955 481.091H39.17"/></g><g stroke="#A56B17"><path d="M64.816 469.308l-12.861 11.783v-11.783"/><path d="M60.966 468.538l-9.011 12.553 4.775-12.785"/><path d="M64.97 472.388l-13.015 8.703 13.477-4.236M51.955 481.091h12.168"/></g><g stroke="#A56B17"><path d="M38.477 493.875l13.478-12.784v12.784"/><path d="M43.175 493.798l8.78-12.707-4.698 12.784M38.785 490.256l13.17-9.165-12.785 4.698M51.955 481.091H39.17"/></g><g stroke="#E5A300"><path d="M65.432 493.875l-13.477-12.784v12.784"/><path d="M60.812 493.875l-8.857-12.784 4.775 12.784M65.201 490.256l-13.246-9.165 12.861 4.698M51.955 481.091h12.861"/></g><path stroke="#E5A300" d="M38.477 468.306h26.955v25.646H38.477z"/></g><g fill="none" stroke-linecap="round" stroke-linejoin="round" stroke-miterlimit="10"><path stroke="#A56B17" stroke-width="2.102" d="M54.881 467.998L39.71 452.75M65.124 457.987l-15.557-15.711M66.125 451.902l-16.096 15.865M55.035 442.661l-16.096 15.942"/><path stroke="#E5A300" stroke-width="2.102" d="M39.17 442.43l13.478 12.784M66.125 442.43l-13.477 12.784"/><path stroke="#A56B17" stroke-width="1.457" d="M66.203 457.91l-8.01 7.624-2.773 2.618a3.803 3.803 0 0 1-2.618 1.078c-1.078.077-2.233-.308-3.004-1.078l-7.239-6.931-3.466-3.312a3.515 3.515 0 0 1-1.155-2.85c0-.924.462-1.848 1.155-2.541l6.469-6.161 4.236-4.082c.77-.77 1.771-1.078 2.85-1.078 1.001 0 2.079.385 2.85 1.078l10.705 10.166c.77.77 1.155 1.694 1.155 2.695a3.912 3.912 0 0 1-1.155 2.774z"/><path stroke="#E5A300" stroke-width="1.457" d="M39.17 442.43h26.955v25.646H39.17z"/><path stroke="#A56B17" stroke-width="1.457" d="M58.193 444.894l8.01 7.624c.77.77 1.155 1.694 1.155 2.695M45.563 446.357l4.236-4.082c.77-.77 1.771-1.078 2.85-1.078M42.559 461.221l-3.466-3.312a3.515 3.515 0 0 1-1.155-2.85M58.193 465.457l-2.773 2.618a3.803 3.803 0 0 1-2.618 1.078"/><path stroke="#E5A300" stroke-width="2.102" d="M52.648 455.214L39.17 467.998M52.648 455.214l13.477 12.784"/></g><g fill="none" stroke-linecap="round" stroke-linejoin="round" stroke-miterlimit="10"><path stroke="#A56B17" stroke-width="2.102" d="M27.387 494.106L11.83 478.472M37.322 483.709l-15.634-15.711M37.861 478.01l-15.942 15.788M27.233 468.384l-16.096 15.942"/><path stroke="#E5A300" stroke-width="2.102" d="M11.291 468.152l13.478 12.785M38.246 468.152l-13.477 12.785"/><path stroke="#A56B17" stroke-width="1.457" d="M38.323 483.632l-8.01 7.624-2.773 2.618a3.803 3.803 0 0 1-2.618 1.078c-1.078.077-2.233-.308-3.004-1.078l-7.239-6.931-3.466-3.312a3.515 3.515 0 0 1-1.155-2.85c0-.924.462-1.848 1.155-2.542l6.469-6.161 4.236-4.082c.77-.77 1.771-1.078 2.85-1.078 1.001 0 2.079.385 2.85 1.078l10.705 10.166c.77.77 1.155 1.694 1.155 2.695 0 1.081-.385 2.005-1.155 2.775z"/><path stroke="#E5A300" stroke-width="1.457" d="M11.291 468.152h26.955v25.646H11.291z"/><path stroke="#A56B17" stroke-width="1.457" d="M30.314 470.694l8.01 7.624c.77.77 1.155 1.694 1.155 2.696M17.683 472.157l4.236-4.082c.77-.77 1.771-1.078 2.85-1.078M14.68 486.944l-3.466-3.312a3.515 3.515 0 0 1-1.155-2.85M30.314 491.18l-2.773 2.618a3.803 3.803 0 0 1-2.618 1.078"/><path stroke="#E5A300" stroke-width="2.102" d="M24.769 480.937l-13.478 12.784M24.769 480.937l13.477 12.784"/></g></g><defs><path id="e" d="M25.154 350.243H-.415l66.232 114.444 12.785-22.18z"/></defs><clipPath id="f"><use xlink:href="#e" overflow="visible"/></clipPath><g clip-path="url(#f)"><path fill="#4285F4" d="M80.604 446.357l-3.543 6.007-11.86 19.562.231-6.392c.077-1.694-.385-3.389-1.309-4.929l-8.318-13.863-.077-.154-12.322-20.486-42.82-71.469c-2.31-3.928-4.082-9.627.77-9.627l21.641.693 57.607 100.658z"/><path fill="#2167CE" d="M29.236 416.861l-5.545-2.387c2.541-5.776 8.78-8.009 13.786-8.164 2.464-.077 4.775.231 7.085.462 2.156.231 4.159.462 6.084.462 3.158-.077 7.008-1.309 8.472-4.544l5.468 2.464c-2.541 5.776-8.78 7.932-13.786 8.087-2.387.077-4.775-.231-7.008-.462-2.156-.231-4.159-.462-6.161-.462-3.158.077-7.009 1.309-8.395 4.544z"/><path fill="#2167CE" d="M65.894 415.321c-9.55 3.235-23.566-7.932-29.034 5.083-.616 1.463.616 3.774 0 5.237 5.468-13.092 19.485-1.925 29.034-5.083.617-.155-.462-5.083 0-5.237z"/><path fill="#2167CE" d="M40.326 432.264c2.387-7.393 8.934-7.162 15.172-5.006 6.7 2.31 14.017 4.236 19.87-1.078.847-.77-.847-4.236 0-5.006-5.776 5.314-13.169 3.389-19.87 1.078-6.238-2.156-12.784-2.387-15.172 5.006-.539 1.54.462 3.542 0 5.006z"/><path fill="#2167CE" d="M76.368 430.492c-3.389.77-6.931 1.54-10.397 1.463-3.62-.077-7.008-1.54-10.474-2.079-7.008-1.155-14.248 0-19.1 5.545-.847 1.001.847 4.313 0 5.237 4.852-5.468 12.091-6.7 19.1-5.545 3.312.539 6.469 1.848 9.858 2.079 3.697.231 7.47-.616 11.09-1.386.386-.154-.385-5.237-.077-5.314z"/><path fill="#2167CE" d="M47.796 449.669c5.083-4.775 11.475-4.621 18.021-4.159 6.084.385 11.167-1.617 14.325-7.085.77-1.309-.77-3.928 0-5.237-3.081 5.391-8.241 7.47-14.325 7.085-6.546-.462-12.938-.616-18.021 4.159-.924.77.847 4.39 0 5.237z"/><path fill="#2167CE" d="M82.761 439.888c-6.623 11.706-21.179 11.013-32.808 9.473.154 0-.231 5.237 0 5.237 11.552 1.463 26.108 2.156 32.808-9.473.693-1.309-.771-3.928 0-5.237z"/><path fill="#2167CE" d="M83.993 450.67c-8.164 10.705-22.488 8.164-33.732 5.16.385.077-.462 5.16 0 5.237 11.244 3.004 25.646 5.622 33.732-5.16.847-1.155-.847-4.159 0-5.237zM26.386 408.466l-4.929-2.079c2.387-5.622 7.547-7.47 11.706-7.393 2.002.077 3.851.462 5.622.847 1.617.385 3.158.693 4.698.693 1.155 0 4.929-.231 6.623-4.159l4.929 2.079c-2.31 5.622-7.547 7.547-11.629 7.47-2.002-.077-3.851-.462-5.699-.847-1.617-.385-3.158-.693-4.621-.693-1.155-.154-5.006.077-6.7 4.082z"/><path fill="#2167CE" d="M19.917 398.454c9.165-4.236 24.26 5.391 28.264-8.241.462-1.617-.462-3.62 0-5.237-4.005 13.632-19.177 4.005-28.264 8.241-.693.308.616 4.929 0 5.237z"/><path fill="#2167CE" d="M45.101 379.201c-2.387 7.393-8.857 7.162-15.095 5.083-6.7-2.233-14.094-4.159-19.87 1.155-.847.77.847 4.236 0 5.006 5.776-5.314 13.169-3.466 19.87-1.155 6.238 2.079 12.784 2.31 15.095-5.083.539-1.541-.463-3.543 0-5.006z"/><path fill="#2167CE" d="M9.058 381.126c3.389-.77 6.931-1.54 10.397-1.463 3.62.077 7.008 1.463 10.474 2.079 7.008 1.155 14.248-.077 19.1-5.622.847-1.001-.847-4.313 0-5.237-4.852 5.545-12.091 6.777-19.1 5.622-3.312-.539-6.469-1.848-9.858-2.002-3.697-.231-7.47.616-11.09 1.463-.385 0 .385 5.083.077 5.16z"/><path fill="#2167CE" d="M37.553 361.872c-5.083 4.775-11.475 4.698-18.021 4.236-6.084-.385-11.167 1.694-14.248 7.162-.77 1.309.77 3.928 0 5.237 3.081-5.468 8.164-7.547 14.248-7.162 6.546.385 12.938.539 18.021-4.236.924-.847-.847-4.466 0-5.237z"/><path fill="#2167CE" d="M2.666 371.73c6.623-11.706 21.179-11.09 32.731-9.627-.154 0 .231-5.237 0-5.237-11.552-1.463-26.108-2.079-32.731 9.627-.771 1.31.693 3.928 0 5.237z"/><path fill="#2167CE" d="M1.356 360.948c8.087-10.782 22.411-8.241 33.732-5.237-.385-.077.462-5.16 0-5.237-11.244-2.927-25.646-5.468-33.732 5.237-.847 1.156.847 4.159 0 5.237z"/><path fill="#144570" d="M23.228 345.006c7.624 21.795-7.316 25.107-7.316 25.107l26.416 2.618c-.077.001-11.629-13.246-19.1-27.725z"/><path fill="#144570" d="M20.533 376.274l23.412-4.236-4.389 5.931-18.484-.155zM29.159 381.203c1.155 22.565-13.863 21.564-13.863 21.564l24.029 9.858c-.001-.077 3.927-14.633-10.166-31.422zM24.769 415.937l22.873-4.236-4.236 5.853-18.098-.154zM57.115 416.63c1.309 26.185-16.096 24.953-16.096 24.953l27.879 11.398c0 .077 4.621-16.867-11.783-36.351zM52.032 456.908l26.57-4.852-4.929 6.778-21.025-.154z"/></g><defs><path id="g" d="M86.842 428.182a13.434 13.434 0 0 0 0-13.401L49.49 350.243H25.077l53.448 92.263 8.317-14.324z"/></defs><clipPath id="h"><use xlink:href="#g" overflow="visible"/></clipPath><g clip-path="url(#h)"><path fill="#DB4437" d="M43.637 340.154H15.065l64.923 118.757 18.561-32.423z"/><g fill="none" stroke="#A00000" stroke-width="4.705" stroke-miterlimit="10"><path d="M98.395 441.968c-1.078-1.771-1.617-3.697-1.771-5.699a13.276 13.276 0 0 0-1.771-5.699c-1.078-1.771-2.464-3.235-4.159-4.236-1.694-1.001-3.081-2.464-4.159-4.236-1.078-1.771-1.617-3.697-1.771-5.699a13.276 13.276 0 0 0-1.771-5.699c-1.078-1.771-2.464-3.235-4.159-4.236-1.694-1.001-3.081-2.464-4.159-4.236-1.078-1.771-1.617-3.697-1.771-5.699a13.276 13.276 0 0 0-1.771-5.699c-1.078-1.771-2.464-3.235-4.159-4.236-1.617-1.001-3.081-2.464-4.159-4.236-1.078-1.771-1.617-3.774-1.771-5.699-.154-1.925-.693-3.928-1.771-5.699s-2.464-3.235-4.159-4.236c-1.617-1.001-3.081-2.464-4.159-4.236s-1.617-3.774-1.771-5.699-.693-3.928-1.771-5.699-2.541-3.235-4.159-4.236c-1.617-1.001-3.081-2.464-4.159-4.236-1.078-1.771-1.617-3.697-1.771-5.699M93.081 445.202c-1.078-1.771-1.617-3.697-1.771-5.699a13.276 13.276 0 0 0-1.771-5.699c-1.078-1.771-2.464-3.235-4.159-4.236-1.694-1.001-3.081-2.464-4.159-4.236s-1.617-3.697-1.771-5.699a13.276 13.276 0 0 0-1.771-5.699c-1.078-1.771-2.464-3.235-4.159-4.236s-3.081-2.464-4.159-4.236c-1.078-1.771-1.617-3.697-1.771-5.699a13.276 13.276 0 0 0-1.771-5.699c-1.078-1.771-2.464-3.235-4.159-4.236-1.617-1.001-3.081-2.464-4.159-4.236-1.078-1.771-1.617-3.774-1.771-5.699-.154-1.925-.693-3.928-1.771-5.699s-2.464-3.235-4.159-4.236c-1.617-1.001-3.081-2.464-4.159-4.236s-1.617-3.774-1.771-5.699-.693-3.928-1.771-5.699-2.541-3.235-4.159-4.236c-1.617-1.001-3.081-2.464-4.159-4.236-1.078-1.771-1.848-4.698-1.925-6.623M87.69 448.36c-1.078-1.771-1.617-3.697-1.771-5.699a13.276 13.276 0 0 0-1.771-5.699c-1.078-1.771-2.464-3.235-4.159-4.236-1.694-1.001-3.081-2.464-4.159-4.236-1.078-1.771-1.617-3.697-1.771-5.699a13.276 13.276 0 0 0-1.771-5.699c-1.078-1.771-2.464-3.235-4.159-4.236s-3.081-2.464-4.159-4.236c-1.078-1.771-1.617-3.697-1.771-5.699a13.276 13.276 0 0 0-1.771-5.699c-1.078-1.771-2.464-3.235-4.159-4.236-1.617-1.001-3.081-2.464-4.159-4.236-1.078-1.771-1.617-3.774-1.771-5.699-.154-1.925-.693-3.928-1.771-5.699s-2.464-3.235-4.159-4.236c-1.617-1.001-3.081-2.464-4.159-4.236-1.078-1.771-1.617-3.774-1.771-5.699-.154-1.925-.693-3.928-1.771-5.699s-2.541-3.235-4.159-4.236c-1.617-1.001-3.081-2.464-4.159-4.236-1.078-1.771-2.002-5.622-2.079-7.547M82.299 451.594c-1.078-1.771-1.617-3.697-1.771-5.699a13.276 13.276 0 0 0-1.771-5.699c-1.078-1.771-2.464-3.235-4.159-4.236s-3.081-2.464-4.159-4.236c-1.078-1.771-1.617-3.697-1.771-5.699a13.276 13.276 0 0 0-1.771-5.699c-1.078-1.771-2.464-3.235-4.159-4.236-1.694-1.001-3.081-2.464-4.159-4.236s-1.617-3.697-1.771-5.699a13.276 13.276 0 0 0-1.771-5.699c-1.078-1.771-2.464-3.235-4.159-4.236-1.617-1.001-3.081-2.464-4.159-4.236s-1.617-3.774-1.771-5.699c-.154-1.925-.693-3.928-1.771-5.699s-2.464-3.235-4.159-4.236c-1.617-1.001-3.081-2.464-4.159-4.236-1.078-1.771-1.617-3.774-1.771-5.699-.154-1.925-.693-3.928-1.771-5.699s-2.541-3.235-4.159-4.236c-1.617-1.001-3.081-2.464-4.159-4.236s-2.156-6.546-2.233-8.472"/></g><path fill="none" d="M12.677 341.233l-.924-1.387"/><g><path fill="#630000" d="M51.339 392.524v-4.159l6.931-11.629 7.008 11.629v26.031l2.388 3.851v-3.928l7.008-11.629 6.931 11.629v33.579l-30.266-49.906z"/><path fill="#630000" d="M48.951 388.674l2.311 3.85V382.05l7.008-11.629 7.008 11.629v40.048l-30.343-49.829"/><path fill="#630000" d="M34.935 367.803v-3.928l7.008-11.629 7.008 11.629v33.578"/><path fill="#D9413D" d="M73.442 410.777h1.925v13.324h-1.925z"/><path fill="#D9413D" d="M70.177 413.978h8.472v1.925h-8.472zM69.206 426.488h2.773v2.773h-2.773zM73.057 426.488h2.773v2.773h-2.773zM76.908 426.488h2.773v2.773h-2.773zM69.206 430.569h2.773v2.773h-2.773zM73.057 430.569h2.773v2.773h-2.773zM76.908 430.569h2.773v2.773h-2.773zM69.206 434.651h2.773v2.773h-2.773zM73.057 434.651h2.773v2.773h-2.773zM76.908 434.651h2.773v2.773h-2.773zM69.206 438.81h2.773v2.773h-2.773zM73.057 438.81h2.773v2.773h-2.773zM76.908 438.81h2.773v2.773h-2.773z"/><g><path fill="#D9413D" d="M56.884 377.044h1.925v13.324h-1.925z"/><path fill="#D9413D" d="M53.633 380.298h8.472v1.925h-8.472z"/></g><g><path fill="#D9413D" d="M41.019 360.563h1.925v13.324h-1.925z"/><path fill="#D9413D" d="M37.805 363.829h8.472v1.925h-8.472z"/></g><g><path fill="#D9413D" d="M52.648 392.755h2.773v2.773h-2.773zM56.499 392.755h2.773v2.773h-2.773zM60.349 392.755h2.773v2.773h-2.773zM52.648 396.837h2.773v2.773h-2.773zM56.499 396.837h2.773v2.773h-2.773zM60.349 396.837h2.773v2.773h-2.773zM52.648 400.996h2.773v2.773h-2.773zM56.499 400.996h2.773v2.773h-2.773zM60.349 400.996h2.773v2.773h-2.773zM52.648 405.078h2.773v2.773h-2.773zM56.499 405.078h2.773v2.773h-2.773zM60.349 405.078h2.773v2.773h-2.773z"/></g><g><path fill="#D9413D" d="M36.783 376.274h2.773v2.773h-2.773zM40.634 376.274h2.773v2.773h-2.773zM44.484 376.274h2.773v2.773h-2.773zM36.783 380.433h2.773v2.773h-2.773zM40.634 380.433h2.773v2.773h-2.773zM44.484 380.433h2.773v2.773h-2.773zM36.783 384.515h2.773v2.773h-2.773zM40.634 384.515h2.773v2.773h-2.773zM44.484 384.515h2.773v2.773h-2.773zM36.783 388.596h2.773v2.773h-2.773zM40.634 388.596h2.773v2.773h-2.773zM44.484 388.596h2.773v2.773h-2.773z"/></g></g></g><path fill="none" d="M86.919 414.781l-37.352-64.538H-.415l41.203 71.238L-.415 492.72h49.982l37.352-64.538a13.43 13.43 0 0 0 0-13.401z"/><path fill="none" d="M86.919 414.781l-37.352-64.538H-.415l41.203 71.238L-.415 492.72h49.982l37.352-64.538a13.43 13.43 0 0 0 0-13.401z"/><path fill="none" d="M86.919 414.781l-37.352-64.538H-.415l41.203 71.238L-.415 492.72h49.982l37.352-64.538a13.43 13.43 0 0 0 0-13.401z"/><path opacity=".2" fill="#BF360C" d="M49.567 491.642h-23.72l-.616 1.155h24.414l16.25-28.11-.385-.539-15.943 27.494z"/><path fill="none" d="M86.919 414.781l-37.352-64.538H-.415l41.203 71.238L-.415 492.72h49.982l37.352-64.538a13.43 13.43 0 0 0 0-13.401z"/><path opacity=".2" fill="#263238" d="M.278 491.642l-.616 1.155h25.569l.616-1.155H.278z"/><path fill="none" d="M86.919 414.781l-37.352-64.538H-.415l41.203 71.238L-.415 492.72h49.982l37.352-64.538a13.43 13.43 0 0 0 0-13.401z"/><path opacity=".2" fill="#FFF" d="M-.415 492.797h.616l40.895-70.699-.385-.539-41.126 71.238z"/><path fill="none" d="M86.919 414.781l-37.352-64.538H-.415l41.203 71.238L-.415 492.72h49.982l37.352-64.538a13.43 13.43 0 0 0 0-13.401z"/><radialGradient id="i" cx="-200.523" cy="-190.93" r="29.415" gradientTransform="translate(178.513 565.165) scale(.6394)" gradientUnits="userSpaceOnUse"><stop offset="0" stop-color="#263238"/><stop offset="1" stop-color="#263238"/></radialGradient><path opacity=".25" fill="url(#i)" d="M65.817 464.687l-15.171-15.865-15.865-16.789 6.007-10.551 12.861 22.18z"/><path fill="none" d="M86.919 414.781l-37.352-64.538H-.415l41.203 71.238L-.415 492.72h49.982l37.352-64.538a13.43 13.43 0 0 0 0-13.401z"/><path fill="none" d="M86.919 414.781l-37.352-64.538H-.415l41.203 71.238L-.415 492.72h49.982l37.352-64.538a13.43 13.43 0 0 0 0-13.401z"/><path fill="none" d="M86.919 414.781l-37.352-64.538H-.415l41.203 71.238L-.415 492.72h49.982l37.352-64.538a13.43 13.43 0 0 0 0-13.401z"/><path fill="none" d="M86.919 414.781l-37.352-64.538H-.415l41.203 71.238L-.415 492.72h49.982l37.352-64.538a13.43 13.43 0 0 0 0-13.401z"/><path opacity=".2" fill="#1A237E" d="M78.602 442.507l-.308-.539-12.476 21.564L.278 350.243h-.616l66.232 114.444 12.708-22.18z"/><path fill="none" d="M86.919 414.781l-37.352-64.538H-.415l41.203 71.238L-.415 492.72h49.982l37.352-64.538a13.43 13.43 0 0 0 0-13.401z"/><path opacity=".2" fill="#FFF" d="M49.567 351.399l37.352 64.538c1.078 1.925 1.617 4.005 1.771 6.161.077-2.464-.462-5.006-1.771-7.239L49.567 350.32H-.415l.616 1.155h49.366v-.076z"/><path fill="none" d="M86.919 414.781l-37.352-64.538H-.415l41.203 71.238L-.415 492.72h49.982l37.352-64.538a13.43 13.43 0 0 0 0-13.401z"/><path opacity=".2" fill="#3E2723" d="M78.602 442.507l8.241-14.325c1.309-2.233 1.848-4.775 1.771-7.239-.077 2.156-.616 4.236-1.771 6.161l-8.626 14.864.385.539z"/><path fill="none" d="M86.919 414.781l-37.352-64.538H-.415l41.203 71.238L-.415 492.72h49.982l37.352-64.538a13.43 13.43 0 0 0 0-13.401z"/><radialGradient id="j" cx="-281.519" cy="-2011.338" r="234.001" gradientTransform="translate(178.513 1637.38) scale(.6394)" gradientUnits="userSpaceOnUse"><stop offset="0" stop-color="#fff" stop-opacity=".1"/><stop offset="1" stop-color="#fff" stop-opacity="0"/></radialGradient><path fill="url(#j)" d="M86.919 414.781l-37.352-64.538H-.415l41.203 71.238L-.415 492.72h49.982l37.352-64.538a13.43 13.43 0 0 0 0-13.401z"/></svg>